<svg width="166" height="205" xmlns="http://www.w3.org/2000/svg">
    <g fill="#FFF" stroke="#FFF" stroke-width=".5" fill-rule="evenodd">
        <path d="M1 204.954c.266-.614.67-1.16 1.122-1.652.453-.494.978-.92 1.532-1.296 1.115-.753 2.38-1.26 3.677-1.604.65-.172 1.312-.291 1.978-.385.666-.08 1.336-.142 2.007-.159l.503-.015.504.002c.336-.003.67.012 1.003.026.334.02.666.012.999.01l.997-.007-.163.12c.17-.51.392-.979.653-1.437.26-.455.56-.89.91-1.287.687-.798 1.597-1.443 2.632-1.738a5.38 5.38 0 0 1 1.585-.206c.27.003.521.024.779.038l.77.046 3.078.185-.23.164a14.91 14.91 0 0 1 1.156-2.75 13.983 13.983 0 0 1 1.68-2.462c.321-.382.679-.733 1.047-1.072.192-.16.378-.33.582-.475.101-.075.2-.153.303-.224l.314-.208a8.843 8.843 0 0 1 2.76-1.178l.183-.046.185-.033.371-.066c.248-.038.499-.056.748-.084l.75-.023c.247.001.494.005.74.013.988.033 1.976.123 2.952.3.975.176 1.94.438 2.86.83.46.195.906.425 1.331.688.212.131.42.272.62.414.1.069.201.141.29.195a.59.59 0 0 0 .06.031c.014.009.027.007-.001.006a.12.12 0 0 0-.063.023.092.092 0 0 0-.033.034c-.004.012.003-.007.006-.023l-.003.033c-.006-.642-.04-1.313-.014-1.977.024-.665.093-1.332.228-1.988.27-1.308.848-2.577 1.757-3.57a7.458 7.458 0 0 1 1.54-1.283 9.3 9.3 0 0 1 1.801-.856c1.257-.434 2.572-.657 3.887-.75h.005c1.41.015 2.819.037 4.228.061-1.41.024-2.819.046-4.228.061h.005c-1.305.123-2.6.377-3.822.832a9.8 9.8 0 0 0-1.739.868 7.193 7.193 0 0 0-1.463 1.257c-.857.965-1.392 2.182-1.633 3.448-.121.635-.179 1.281-.192 1.93-.006.325-.002.65.009.976.01.327.03.653.034.991v.019l-.003.014c-.009.044-.014.086-.048.151a.309.309 0 0 1-.09.104.292.292 0 0 1-.15.05c-.09.002-.137-.02-.178-.036-.042-.017-.073-.035-.104-.053-.12-.071-.219-.142-.32-.212-.2-.14-.399-.273-.603-.397a9.45 9.45 0 0 0-1.278-.653 12.915 12.915 0 0 0-2.773-.79 19.863 19.863 0 0 0-2.888-.278c-.242-.007-.485-.01-.728-.01l-.717.026c-.236.028-.475.047-.71.083l-.352.065-.176.032-.173.044a8.369 8.369 0 0 0-2.608 1.129c-.404.255-.775.557-1.138.866-.353.322-.698.656-1.009 1.022-.63.723-1.17 1.527-1.633 2.371a14.518 14.518 0 0 0-1.13 2.648l-.054.175-.176-.011-3.077-.2-.77-.05c-.255-.015-.517-.037-.76-.04a4.956 4.956 0 0 0-1.462.181 4.705 4.705 0 0 0-1.335.62c-.414.271-.789.603-1.122.975-.336.37-.629.78-.885 1.213-.254.431-.479.894-.642 1.356l-.042.12h-.121l-1.004-.007c-.335-.003-.67 0-1.002-.025-.333-.02-.666-.04-.997-.041l-.498-.01-.497.008c-.664.007-1.325.06-1.984.128-.657.085-1.313.186-1.958.339-1.286.308-2.545.778-3.664 1.495a8.81 8.81 0 0 0-1.549 1.244c-.465.472-.884 1.003-1.169 1.607"/>
        <path d="M53.354 179.322a6.66 6.66 0 0 1 .191-2.408c.211-.782.577-1.54 1.126-2.157a5.34 5.34 0 0 1 2.01-1.403c.762-.315 1.575-.486 2.39-.56l.611-.04c.204-.007.407-.002.61-.004l.611-.003c.204-.003.407.023.611.034l.612.048c.203.031.405.065.608.1.407.054.802.189 1.199.3.777.279 1.535.666 2.14 1.246.309.28.559.623.759.984.192.367.328.765.346 1.177l-.048.003a2.967 2.967 0 0 0-.488-1.065 3.922 3.922 0 0 0-.795-.844c-.605-.484-1.321-.808-2.063-1.04-1.5-.423-3.104-.56-4.684-.51-.787.048-1.57.19-2.303.467-.734.272-1.411.7-1.947 1.273-.545.565-.928 1.279-1.165 2.035a6.572 6.572 0 0 0-.283 2.361l-.048.006zM24.486 201.348a18.146 18.146 0 0 1 3.683-2.979 11.45 11.45 0 0 1 2.15-1.025c.753-.261 1.55-.424 2.358-.42.8.02 1.596.124 2.374.314.775.195 1.528.478 2.246.83.718.354 1.402.78 2.026 1.29l.233.192c.076.066.147.138.222.206.15.135.288.285.424.436.263.312.522.635.675 1.053l-.375.025c.09-.416.238-.78.398-1.147a12.964 12.964 0 0 1 1.911-3.006 12.309 12.309 0 0 1 1.712-1.66c.627-.491 1.304-.92 2.02-1.27a11.18 11.18 0 0 1 4.602-1.103c.79-.017 1.58.022 2.358.145.39.052.775.128 1.157.216.382.086.76.189 1.134.304l-.012.047c-.764-.158-1.53-.298-2.305-.349-.771-.08-1.547-.082-2.315-.027a11.594 11.594 0 0 0-4.404 1.2c-.682.341-1.327.756-1.924 1.232a12.445 12.445 0 0 0-1.658 1.579 12.61 12.61 0 0 0-1.9 2.863 5.67 5.67 0 0 0-.392 1.051l-.158.669-.218-.644c-.112-.331-.347-.644-.587-.935a5.409 5.409 0 0 0-.394-.418c-.07-.067-.136-.136-.209-.2l-.22-.188a10.303 10.303 0 0 0-1.943-1.278 11.214 11.214 0 0 0-2.175-.843 10.89 10.89 0 0 0-2.307-.34c-.773-.02-1.55.12-2.292.36a11.27 11.27 0 0 0-2.138.967 18.062 18.062 0 0 0-3.721 2.886l-.036-.033zM54.377 193.232c-.09-.572-.128-1.15-.143-1.729-.02-.58 0-1.16.032-1.74.09-1.157.283-2.311.598-3.437.627-2.248 1.851-4.373 3.616-5.954l.334-.291c.11-.099.236-.177.353-.267l.359-.26.179-.13c.06-.042.126-.078.188-.116l.76-.455.794-.385c.26-.139.543-.224.815-.333.275-.103.546-.218.831-.289l.846-.24c.285-.066.574-.11.86-.166.572-.126 1.156-.16 1.734-.23.288-.04.58-.033.87-.049l.87-.03c.58.02 1.16.045 1.737.074.576.057 1.15.12 1.723.19l-.003.031-1.725-.115a118.53 118.53 0 0 0-1.727-.01l-.863.051c-.287.022-.576.021-.86.068-.57.082-1.146.128-1.706.266-.28.061-.565.11-.843.183l-.828.244c-.28.07-.544.186-.812.289-.266.109-.542.195-.795.333l-.774.382-.736.449c-.06.038-.124.073-.183.114l-.173.128-.346.257c-.114.088-.236.165-.342.262l-.322.286c-.86.762-1.601 1.657-2.198 2.639a13.722 13.722 0 0 0-1.393 3.147c-.335 1.1-.55 2.237-.668 3.382-.11 1.145-.137 2.302-.027 3.447l-.032.004zM164.914 204.954c-.286-.604-.704-1.135-1.17-1.607a8.81 8.81 0 0 0-1.548-1.244c-1.119-.717-2.378-1.187-3.664-1.495-.645-.153-1.301-.254-1.958-.34-.66-.068-1.32-.12-1.984-.127l-.497-.008-.498.01c-.33.002-.664.021-.997.04-.332.026-.667.023-1.002.026l-1.004.007h-.12l-.043-.12a7.803 7.803 0 0 0-.642-1.356 7.444 7.444 0 0 0-.885-1.213 5.726 5.726 0 0 0-1.122-.974 4.705 4.705 0 0 0-1.335-.62 4.956 4.956 0 0 0-1.462-.183c-.243.004-.505.026-.76.041l-.77.05-3.077.2-.176.011-.054-.175a14.518 14.518 0 0 0-1.13-2.648 13.512 13.512 0 0 0-1.633-2.371c-.311-.366-.656-.7-1.009-1.022-.363-.31-.734-.611-1.138-.866a8.37 8.37 0 0 0-2.608-1.129l-.173-.044-.176-.032-.352-.065c-.235-.036-.474-.055-.71-.083l-.717-.026c-.243 0-.486.003-.728.01-.97.027-1.937.11-2.888.278-.951.167-1.888.417-2.773.79-.442.185-.87.402-1.278.653-.204.124-.403.258-.603.397-.101.07-.2.14-.32.212-.031.018-.062.036-.104.053-.041.015-.087.038-.178.036a.292.292 0 0 1-.15-.05.31.31 0 0 1-.09-.104c-.034-.065-.039-.107-.048-.15l-.003-.015v-.019c.005-.338.024-.664.034-.99.01-.327.015-.652.01-.977a11.614 11.614 0 0 0-.193-1.93c-.241-1.266-.776-2.483-1.633-3.448a7.201 7.201 0 0 0-1.463-1.257 9.808 9.808 0 0 0-1.74-.868c-1.22-.455-2.516-.71-3.82-.832h.004c-1.41-.015-2.819-.037-4.228-.06 1.41-.025 2.819-.047 4.228-.062h.005c1.315.093 2.63.316 3.887.75a9.303 9.303 0 0 1 1.802.856 7.458 7.458 0 0 1 1.539 1.283c.91.993 1.488 2.262 1.757 3.57.135.656.204 1.323.228 1.988.025.664-.008 1.335-.014 1.977l-.003-.033c.003.016.01.035.006.023a.092.092 0 0 0-.033-.034.12.12 0 0 0-.063-.023c-.029 0-.015.003 0-.006a.572.572 0 0 0 .058-.03c.09-.055.19-.127.29-.196a9.841 9.841 0 0 1 1.952-1.102 13.34 13.34 0 0 1 2.86-.83 20.344 20.344 0 0 1 2.951-.3c.247-.008.494-.012.74-.013l.751.023c.25.028.5.046.748.084l.37.066.186.033.183.046c.976.237 1.92.627 2.76 1.178l.314.208c.103.071.202.15.303.224.204.145.39.315.582.475.368.339.726.69 1.047 1.072a13.99 13.99 0 0 1 1.68 2.462 14.91 14.91 0 0 1 1.155 2.75l-.23-.164 3.08-.185.769-.046c.258-.014.508-.035.78-.038a5.381 5.381 0 0 1 1.585.206c1.034.295 1.944.94 2.631 1.738.35.396.65.832.91 1.287.26.458.482.927.653 1.437l-.163-.12.997.007c.333.002.665.01 1-.01.333-.014.666-.029 1.002-.026l.504-.002.503.015c.671.017 1.34.08 2.007.16.666.093 1.328.212 1.978.384 1.297.344 2.562.851 3.677 1.604.554.376 1.079.802 1.532 1.296.453.492.856 1.038 1.122 1.652"/>
        <path d="M112.512 179.316a6.568 6.568 0 0 0-.283-2.361c-.237-.756-.62-1.47-1.165-2.035a5.06 5.06 0 0 0-1.947-1.273c-.733-.278-1.516-.419-2.303-.466-1.58-.051-3.184.086-4.684.508-.742.233-1.458.557-2.063 1.041-.307.236-.57.527-.795.844a2.97 2.97 0 0 0-.488 1.065l-.049-.003c.019-.412.155-.81.347-1.177.2-.361.45-.704.759-.984.605-.58 1.363-.967 2.14-1.247.397-.11.792-.245 1.2-.3.202-.034.405-.068.607-.099l.612-.048c.204-.011.407-.037.611-.034l.61.003c.204.002.407-.003.61.005l.613.04c.814.073 1.627.244 2.389.56a5.342 5.342 0 0 1 2.01 1.402c.549.617.915 1.374 1.126 2.157.207.786.278 1.604.191 2.408l-.048-.006zM141.392 201.381a18.062 18.062 0 0 0-3.721-2.886c-.68-.39-1.395-.726-2.138-.966-.742-.24-1.519-.381-2.292-.362-.778.031-1.553.145-2.307.341-.753.203-1.482.49-2.175.843a10.31 10.31 0 0 0-1.943 1.278l-.22.188c-.073.064-.139.133-.209.2-.142.13-.268.274-.394.418-.24.29-.475.604-.587.935l-.218.644-.158-.669a5.67 5.67 0 0 0-.392-1.05 12.6 12.6 0 0 0-1.9-2.864 12.434 12.434 0 0 0-1.658-1.579 10.97 10.97 0 0 0-1.924-1.233 11.592 11.592 0 0 0-4.404-1.2 13.262 13.262 0 0 0-2.315.028c-.774.051-1.541.19-2.304.35l-.013-.048c.374-.115.752-.218 1.134-.304.382-.088.768-.164 1.157-.216a13.322 13.322 0 0 1 2.358-.145c1.582.03 3.164.412 4.601 1.103.717.35 1.394.779 2.021 1.27a12.299 12.299 0 0 1 1.711 1.66 12.942 12.942 0 0 1 1.911 3.006c.16.367.31.731.4 1.147l-.376-.025c.153-.418.412-.74.675-1.053.136-.15.274-.301.424-.436.074-.068.146-.14.222-.206l.233-.193a10.651 10.651 0 0 1 2.026-1.288c.718-.353 1.47-.636 2.246-.831.778-.19 1.574-.294 2.374-.314.808-.004 1.605.159 2.358.42.754.26 1.47.616 2.15 1.025a18.146 18.146 0 0 1 3.683 2.98l-.036.032zM111.505 193.228a19.45 19.45 0 0 0-.157-3.435 17.85 17.85 0 0 0-.733-3.335 18.622 18.622 0 0 0-.61-1.586c-.053-.132-.118-.257-.181-.383l-.19-.38c-.06-.127-.133-.248-.205-.37l-.215-.364a11.288 11.288 0 0 0-2.166-2.569l-.313-.282c-.103-.095-.223-.171-.333-.258l-.337-.253-.168-.127c-.058-.04-.12-.075-.18-.112l-.717-.445-.756-.38a15.25 15.25 0 0 0-3.22-1.065c-.55-.148-1.119-.205-1.682-.298-.282-.053-.569-.058-.853-.086l-.856-.07c-.572-.02-1.147-.036-1.722-.048-.574.02-1.15.035-1.727.044l-.003-.032 1.726-.119c.577-.009 1.154-.014 1.73-.015l.864.05c.288.021.578.02.863.066.571.08 1.148.126 1.71.262.282.062.567.11.847.182l.83.243c.281.07.547.186.817.288.267.109.545.194.8.332l.777.383.74.45c.062.038.126.073.185.113l.174.129.35.257c.114.088.237.166.343.263l.325.287c.864.768 1.606 1.67 2.204 2.658.599.987 1.056 2.058 1.39 3.162.334 1.105.546 2.244.662 3.392.108 1.148.132 2.306.019 3.455l-.032-.004z"/>
        <path d="M55.788 196.136c.835.045 1.673.03 2.508-.014a27.538 27.538 0 0 0 2.495-.25 24.06 24.06 0 0 0 2.458-.488 20.846 20.846 0 0 0 2.381-.768 15.936 15.936 0 0 0 2.241-1.1c.72-.42 1.383-.93 2-1.483l.45-.43.417-.461c.144-.15.265-.319.392-.483.122-.167.26-.322.365-.501l.336-.523c.108-.177.196-.365.295-.546l.145-.275c.046-.093.082-.19.124-.285l.241-.572c.07-.195.13-.393.195-.59.065-.196.13-.391.181-.595l.328-1.21c.113-.402.208-.809.308-1.214.097-.406.206-.81.293-1.218.374-1.627.676-3.27.915-4.92.468-3.306.59-6.65.512-9.988-.034-1.67-.103-3.34-.189-5.01l-.261-5.012c-.176-3.342-.314-6.694-.226-10.05a52.35 52.35 0 0 1 .356-5.027c.207-1.669.519-3.333 1.035-4.948.265-.804.573-1.599.974-2.353a9.484 9.484 0 0 1 1.47-2.102 6.825 6.825 0 0 1 2.084-1.527c.195-.097.4-.17.601-.25.207-.065.412-.137.624-.184.209-.059.423-.091.635-.132.214-.025.428-.063.643-.071.43-.04.865-.024 1.296.013.432.044.86.137 1.276.268a5.92 5.92 0 0 1 2.224 1.333c.635.592 1.142 1.301 1.557 2.047.417.748.741 1.538 1.007 2.343.266.805.475 1.626.641 2.453.169.827.296 1.66.395 2.497.198 1.671.282 3.352.303 5.031a81.577 81.577 0 0 1-.118 5.03c-.018.417-.045.838-.048 1.245-.005.426-.021.841-.035 1.26l-.092 2.509a425.913 425.913 0 0 0-.26 10.03c-.034 3.342-.023 6.689.184 10.022.057.832.117 1.665.216 2.493.096.827.21 1.654.398 2.46.04.204.102.4.157.599.05.201.128.39.199.58.15.383.332.767.497 1.148.338.765.685 1.524 1.053 2.273.733 1.496 1.574 2.946 2.62 4.242 1.043 1.295 2.306 2.424 3.77 3.224 1.459.807 3.097 1.265 4.756 1.437.208.016.415.045.624.051l.627.004 1.255.007 2.51.015-2.51.015-1.256.007-.628.004c-.21-.004-.418-.03-.627-.044-1.669-.153-3.324-.594-4.808-1.392-1.488-.79-2.781-1.918-3.85-3.215-1.073-1.298-1.94-2.752-2.695-4.25-.38-.748-.73-1.51-1.075-2.273-.17-.385-.348-.757-.508-1.152-.076-.2-.16-.398-.211-.604-.059-.204-.124-.407-.165-.613-.198-.823-.318-1.656-.42-2.49a50.445 50.445 0 0 1-.235-2.505c-.23-3.346-.262-6.698-.251-10.046.014-3.349.098-6.697.215-10.042l.086-2.508c.013-.416.028-.837.032-1.247.003-.43.028-.845.046-1.264.08-1.67.129-3.337.106-5.004a47.165 47.165 0 0 0-.311-4.984c-.1-.825-.227-1.647-.394-2.459a20.686 20.686 0 0 0-.632-2.399 13.1 13.1 0 0 0-.977-2.26c-.398-.713-.88-1.38-1.472-1.929a5.442 5.442 0 0 0-2.048-1.224 5.965 5.965 0 0 0-1.177-.244 7.07 7.07 0 0 0-1.211-.01c-.203.007-.403.043-.604.066-.199.038-.4.067-.594.121-.197.044-.387.11-.58.17-.187.074-.378.14-.558.23a6.349 6.349 0 0 0-1.943 1.42 9.035 9.035 0 0 0-1.4 1.995c-.387.724-.689 1.494-.95 2.278-.506 1.573-.817 3.212-1.026 4.861a51.874 51.874 0 0 0-.363 4.983c-.095 3.336.035 6.677.203 10.017.17 3.341.358 6.684.404 10.037.056 3.35-.088 6.716-.581 10.037a61.023 61.023 0 0 1-.953 4.939c-.09.41-.201.813-.301 1.22-.104.406-.202.814-.318 1.216l-.336 1.211c-.052.202-.12.403-.188.603-.069.2-.133.401-.206.6l-.253.581c-.044.096-.082.195-.13.289l-.151.279c-.104.184-.196.375-.308.553l-.349.53c-.109.182-.252.338-.379.507-.13.166-.255.336-.404.487l-.43.465-.463.43a12.46 12.46 0 0 1-2.042 1.48c-.73.418-1.489.784-2.274 1.083-.785.297-1.588.543-2.403.744-.814.199-1.64.346-2.47.46-.83.112-1.666.185-2.502.221-.837.035-1.675.04-2.51-.015"/>
        <path d="M82.957 170.456c.02-.4.03-.798.04-1.186.007-.386.046-.785.067-1.177l.042-.59.057-.59c.04-.392.072-.785.125-1.176.18-1.568.432-3.129.738-4.678.31-1.549.678-3.086 1.096-4.61.214-.76.432-1.52.677-2.273.121-.377.247-.752.381-1.126.135-.362.234-.735.33-1.115.186-.76.339-1.53.47-2.302.134-.773.247-1.55.336-2.328.175-1.558.263-3.127.188-4.686a16.201 16.201 0 0 0-.267-2.315c-.15-.759-.363-1.506-.7-2.189-.335-.68-.8-1.296-1.414-1.71-.611-.415-1.354-.61-2.106-.611-.75-.012-1.499.158-2.114.567-.62.402-1.088 1.016-1.422 1.696-.337.682-.553 1.428-.7 2.187-.15.76-.228 1.537-.267 2.316-.074 1.56.009 3.129.176 4.688.171 1.559.417 3.112.733 4.65.159.77.335 1.535.536 2.293.1.38.207.757.324 1.13.12.368.236.753.352 1.132.11.381.205.766.306 1.149l.264 1.156.239 1.16.218 1.165c.274 1.554.51 3.115.725 4.677.217 1.562.407 3.128.57 4.696m0 0c-.437-3.122-.911-6.24-1.527-9.33-.31-1.542-.633-3.086-1.087-4.587-.12-.372-.236-.741-.366-1.12a27.509 27.509 0 0 1-.344-1.14 43.786 43.786 0 0 1-.573-2.303 44.336 44.336 0 0 1-.786-4.682c-.176-1.575-.268-3.163-.2-4.755a16.59 16.59 0 0 1 .263-2.38c.15-.787.371-1.57.73-2.306.354-.731.869-1.422 1.576-1.887.35-.233.74-.404 1.146-.51a4.74 4.74 0 0 1 1.234-.146c.822.002 1.672.225 2.367.703.697.477 1.207 1.168 1.562 1.899.359.735.577 1.52.729 2.306.152.788.227 1.585.264 2.38.068 1.592-.028 3.18-.213 4.755a35.136 35.136 0 0 1-.862 4.674c-.1.383-.21.771-.356 1.147-.137.366-.267.736-.393 1.108a58.571 58.571 0 0 0-.705 2.25 69.526 69.526 0 0 0-1.157 4.575 57.284 57.284 0 0 0-1.302 9.35M80.643 173.835c.067.191.1.383.126.575a4.71 4.71 0 0 1 0 1.15 2.82 2.82 0 0 1-.126.576 2.82 2.82 0 0 1-.127-.575 4.711 4.711 0 0 1 0-1.15 2.86 2.86 0 0 1 .127-.576M80.643 178.32c.056 1.116.06 2.235.023 3.353a43.534 43.534 0 0 1-.23 3.349c-.129 1.112-.294 2.225-.575 3.315a9.807 9.807 0 0 1-.543 1.6c-.12.255-.253.506-.421.735a2.33 2.33 0 0 1-.28.32 1.412 1.412 0 0 1-.349.235c.24-.146.414-.369.558-.602.143-.236.251-.49.346-.75.192-.516.327-1.055.444-1.596.112-.543.21-1.089.288-1.639.081-.55.152-1.1.21-1.654.126-1.105.216-2.215.302-3.326.08-1.112.158-2.225.227-3.34M84.098 174.683c.067.465.102.93.126 1.394.026.465.032.93.036 1.394-.003.465-.01.93-.036 1.394-.023.464-.058.929-.126 1.394a15.05 15.05 0 0 1-.126-1.394 28.47 28.47 0 0 1-.035-1.394c.003-.465.01-.93.036-1.394.024-.465.059-.93.125-1.394M84.098 183.652c.068.187.101.374.127.56a4.505 4.505 0 0 1 0 1.122c-.025.187-.059.374-.127.56a2.689 2.689 0 0 1-.127-.56 4.475 4.475 0 0 1 0-1.121c.027-.187.06-.374.127-.56M87.493 178.32l.086 1.488c.033.493.07.985.131 1.471.057.488.138.97.256 1.443.124.47.283.934.558 1.354-.381-.334-.626-.805-.799-1.28a6.372 6.372 0 0 1-.21-.73 9.971 9.971 0 0 1-.125-.748 10.21 10.21 0 0 1-.062-1.505 8.515 8.515 0 0 1 .165-1.494M89.433 188.197c.064.21.118.408.172.604.056.195.117.385.182.572.067.185.144.364.232.542.09.177.202.34.323.525a1.303 1.303 0 0 1-.531-.384 1.903 1.903 0 0 1-.328-.574 2.283 2.283 0 0 1-.126-.641c-.01-.216.006-.435.076-.644M80.34 115.84l-2.1-.002c-3.507-.404-9.628-19.461-11.237-48.406-.848-15.27 2.824-25.578 6.054-31.535 2.807-5.178 6.015-8.41 7.319-9.396l.182-.137 2.455 2.872 2.552-2.85.17.1c.073.04 1.794 1.055 3.914 3.834 1.944 2.55 4.598 7.135 6.204 14.503 1.707 7.825 2.863 16.322 3.256 23.924.483 9.318-.124 17.15-1.804 23.28a403.28 403.28 0 0 0-1.657 6.299c-2.568 9.98-4.264 16.572-9.262 17.51l-.09-.477c4.696-.88 6.361-7.354 8.882-17.154a402.24 402.24 0 0 1 1.66-6.307c2.365-8.628 3.224-25.499-1.458-46.971-2.765-12.682-8.665-17.196-9.724-17.917l-2.651 2.961-2.517-2.943c-1.377 1.113-4.375 4.239-7.02 9.127-3.193 5.9-6.822 16.11-5.98 31.25.725 13.07 2.477 25.482 4.931 34.95 2.267 8.747 4.576 12.827 5.865 13h2.056v.484z"/>
        <path d="M82.975 96.753c-3.692 1-3.456 4.483-3.13 9.298.078 1.135.157 2.308.191 3.54.178 6.388 1.882 14.47 3.12 18.55 1.225-1.956 2.188-5.984 2.796-11.72.643-6.058.693-11.903.693-13.55 0-5.435-3.246-6.06-3.67-6.118zm.008 32.449-.141-.442c-1.254-3.925-3.104-12.463-3.29-19.156a87.024 87.024 0 0 0-.19-3.52c-.33-4.875-.592-8.726 3.534-9.81l.041-.012.042.004c.042.004 4.15.456 4.15 6.605 0 1.653-.05 7.52-.695 13.601-.672 6.338-1.739 10.497-3.17 12.362l-.281.368zM71.848 39.205l-.076-.478c.042-.006 4.245-.664 9.038-.991 6.464-.44 10.87-.1 13.096 1.014l-.216.433c-5.145-2.572-21.676-.004-21.842.022M95.485 90.137c-6.54 0-25.103-.835-26.024-.877l.022-.484c9.144.414 26.775 1.114 28.059.805l.113.47c-.248.06-1.025.086-2.17.086M100.508 129.126l-.078-.392c-.292-1.473-.387-3.608-.487-5.869-.123-2.771-.25-5.637-.744-7.712-.933-3.922-4.402-5.38-7.234-5.073l-.052-.482c3.035-.328 6.757 1.235 7.757 5.443.504 2.12.633 5.009.757 7.803.09 2.033.175 3.963.403 5.377 1.31-1.26 3.337-4.512 4.308-12.817.623-5.333.555-11.287-.163-14.156-1.303-5.211-8.782-5.492-8.857-5.494l.014-.484c.08.002 1.992.065 4.104.807 2.83.993 4.63 2.74 5.21 5.053 1.37 5.479.628 23.519-4.627 27.745l-.311.251z"/>
        <path d="m101.768 118.258-.481-.05c.298-2.836-.267-6.022-1.474-8.316-1.28-2.43-6.835-2.418-6.897-2.422l-.003-.484c.24-.001 5.912-.01 7.328 2.68 1.27 2.41 1.84 5.622 1.527 8.592M66.039 129.126l-.312-.25c-5.254-4.227-5.996-22.267-4.625-27.746.578-2.313 2.38-4.06 5.209-5.053 2.112-.742 4.024-.805 4.104-.807l.014.484c-.075.002-7.554.283-8.857 5.494-.718 2.87-.786 8.823-.163 14.156.435 3.725 1.567 10.215 4.307 12.818.228-1.413.314-3.344.404-5.378.124-2.794.252-5.684.757-7.803 1-4.208 4.722-5.773 7.757-5.443l-.052.482c-2.83-.306-6.301 1.15-7.234 5.073-.494 2.075-.62 4.94-.744 7.712-.1 2.261-.195 4.396-.487 5.869l-.078.392z"/>
        <path d="M64.778 118.258c-.312-2.97.259-6.182 1.528-8.592 1.416-2.69 7.09-2.677 7.328-2.68l-.003.484c-.057.006-5.617-.008-6.897 2.422-1.208 2.294-1.772 5.48-1.474 8.316l-.482.05zM82.715 105.052h.484v-8.545h-.484zM76.508 110.832c-1.533-2.068-2.68-5.783-3.41-11.041a74.593 74.593 0 0 1-.639-7.277l.485-.013c.003.132.403 13.252 3.953 18.043l-.39.288zM81.355 122.12h-5.231l1.912-6.59.465.134-1.733 5.972h4.587z"/>
        <path d="m78.673 121.935-.471-.114 1.52-6.28.471.113zM82.712 48.094c-5.98 0-10.844 4.943-10.844 11.019 0 6.075 4.864 11.018 10.844 11.018 5.98 0 10.844-4.943 10.844-11.018 0-6.076-4.865-11.019-10.844-11.019m0 22.521c-6.247 0-11.329-5.16-11.329-11.502 0-6.343 5.082-11.503 11.329-11.503 6.246 0 11.328 5.16 11.328 11.503 0 6.342-5.082 11.502-11.328 11.502"/>
        <path d="M82.712 51.305c4.245 0 7.686 3.496 7.686 7.808 0 4.312-3.441 7.807-7.686 7.807-4.246 0-7.687-3.495-7.687-7.807s3.441-7.808 7.687-7.808zm0 .618a7.19 7.19 0 1 0 0 14.379 7.19 7.19 0 0 0 7.192-7.19 7.19 7.19 0 0 0-7.192-7.189zM82.712 74.522c-3.254 0-5.901 2.69-5.901 5.998 0 3.307 2.647 5.998 5.9 5.998 3.254 0 5.902-2.69 5.902-5.998 0-3.307-2.648-5.998-5.901-5.998m0 12.48c-3.521 0-6.386-2.908-6.386-6.482 0-3.574 2.865-6.482 6.386-6.482 3.52 0 6.385 2.908 6.385 6.482 0 3.574-2.864 6.482-6.385 6.482"/>
        <path d="M82.712 76.194c2.352 0 4.259 1.937 4.259 4.326 0 2.39-1.907 4.326-4.26 4.326-2.352 0-4.259-1.936-4.259-4.326 0-2.39 1.907-4.326 4.26-4.326zm0 .731a3.595 3.595 0 1 0-.001 7.191 3.595 3.595 0 0 0 0-7.19zM80.762 26.723l-.48-.057 2.214-18.712h1.519l.021.218 1.82 18.499-.483.047-1.797-18.28h-.649z"/>
        <path d="M83.068 1.484c-1.27 0-2.304 1.451-2.304 3.235 0 1.784 1.033 3.235 2.304 3.235 1.27 0 2.304-1.451 2.304-3.235 0-1.784-1.034-3.235-2.304-3.235m0 6.954c-1.538 0-2.789-1.668-2.789-3.719C80.28 2.67 81.53 1 83.068 1c1.537 0 2.788 1.668 2.788 3.72 0 2.05-1.25 3.718-2.788 3.718"/>
    </g>
</svg>
