<svg width="104" height="46" xmlns="http://www.w3.org/2000/svg">
    <defs>
        <linearGradient x1="49.111%" y1="106.562%" x2="51.018%" y2="-4.997%" id="a">
            <stop stop-color="#FB0" offset="0%"/>
            <stop stop-color="#DB2574" offset="49.47%"/>
            <stop stop-color="#FF20B6" offset="100%"/>
        </linearGradient>
        <linearGradient x1="50.018%" y1="-6.38%" x2="50.018%" y2="112.745%" id="b">
            <stop stop-color="#FFF33A" offset="0%"/>
            <stop stop-color="#08AE82" offset="68.75%"/>
            <stop stop-color="#0358EA" offset="100%"/>
        </linearGradient>
    </defs>
    <g fill="none" fill-rule="evenodd">
        <path fill="#FFF" d="M0 11.649v2.82h5.154v19.933h3.208V11.65zM81.975 34.33h3.695L76.92 14.783l-1.167-2.625c-.292-.68-1.167-.68-1.459 0l-1.07 2.723-8.75 19.544h3.694l3.306-7.292h7.196l3.306 7.195zM72.64 24.313l2.334-5.348 2.334 5.348H72.64zM96.025 14.461h-4.543v8.821h4.543c3.709 0 5.1-2.326 5.1-4.459-.093-1.938-1.02-4.362-5.1-4.362m-4.543 11.742v8.227h-3.258V11.65h8.172c5.47 0 7.603 3.49 7.603 6.98-.1 4.41-2.782 7.573-8.067 7.573h-4.45zM67.024 11.746l-6.904 15.46-2.82-6.417-.583-1.459h-2.528l-.584 1.362-2.82 6.32-6.904-15.363h-3.695l8.752 19.544 1.167 2.529c.291.68 1.166.68 1.458 0l1.167-2.529 2.82-6.32 2.82 6.32 1.167 2.529c.291.68 1.166.68 1.458 0l1.167-2.529 8.751-19.544-3.89.097z"/>
        <path d="M3.939 3.476C5.576 1.98 7.38.902 9.532.399c1.95-.457 4.237-.431 5.981 0 2.17.372 9.219 3.077 9.219 12.229 0 .719-.139 1.358-.298 2.078-.08.24-.32.48-.56.48h-1.693c-.4 0-.639-.32-.559-.72.16-.64.16-1.199.16-1.838 0-2.318-1.098-5.45-2.59-6.76-2.144-2.198-4.145-2.884-6.64-2.884-1.997 0-4.743.678-7.06 2.996-3.437 3.517-3.29 10.084-.334 13.361l.64.64 5.354 5.035 1.04-1.04c0-.08.08 0 .16 0v3.837c0 .16-.08.24-.24.24l-3.837.08c-.08 0-.08-.08-.08-.16l.96-.96L3.08 21.34C-1.395 16.384-.895 7.602 3.94 3.476z" fill="url(#a)" transform="translate(12.127)"/>
        <path d="M5.358 26.591C1.123 23.794.078 19.533.078 15.537c0-.72 0-1.36.16-2.078.079-.24.319-.48.559-.48 0 0 1.533.05 1.933.05.48 0 .879.32.799.64-.24.959-.24 1.918-.16 3.037.856 6.206 5.517 8.7 9.246 8.68 2.06 0 4.686-.116 7.563-3.073 3.357-3.596 2.837-9.734.28-12.53l-1.28-1.36-4.955-5.035-.879.72c-.08.08-.08 0-.16 0V.272c0-.16.08-.24.24-.24h3.836c.08 0 .08.08.08.16L16.301 1.23l6.154 6.074c4.636 4.875 4.496 12.83.549 17.233-1.932 2.227-4.83 3.882-7.891 4.317-3.245.46-6.952-.35-9.755-2.264z" transform="translate(12.509 16.936)" fill="url(#b)"/>
        <path d="M27.603 6.653c-1.519-.8-3.357-1.039-5.035-.48-1.678.48-3.117 1.599-3.916 3.197-.8 1.519-1.04 3.357-.48 5.035.4 1.36 1.279 2.638 2.398 3.437.48.32 1.119.24 1.598-.16l.32-.32c.32-.32.32-.879 0-1.118l-.64-.64c-.559-.48-.958-1.119-1.198-1.838-.32-1.039-.16-2.078.32-3.117.479-1.039 1.358-1.598 2.397-1.918 1.04-.32 2.078-.16 3.117.32 1.598.879 2.318 2.717 1.998 4.395l-.08.64c-.08.4.24.719.64.719h1.278c.24 0 .4-.16.48-.4.879-2.957-.32-6.154-3.197-7.752M27.117 38.949c1.679-.48 3.117-1.599 3.916-3.197.8-1.599 1.04-3.357.48-5.035-.4-1.359-1.279-2.638-2.398-3.437-.48-.32-1.119-.24-1.598.16 0 0-.08.08-.24.32-.24.32-.32.879 0 1.119l.64.639c.559.48.959 1.119 1.198 1.838.32 1.04.16 2.078-.32 3.117-.479.96-1.358 1.599-2.397 1.918-1.039.32-2.078.16-3.117-.32-1.598-.879-2.318-2.717-1.998-4.395l.08-.64c.08-.4-.24-.719-.64-.719h-1.198c-.24 0-.4.08-.48.4-.879 2.877.32 6.154 3.197 7.672 1.359.88 3.117 1.12 4.875.56z" fill="#FFF"/>
    </g>
</svg>
