<svg xmlns="http://www.w3.org/2000/svg" width="25" height="20" viewBox="0 0 25 20">
    <g fill="none" fill-rule="evenodd">
        <g fill="#3899F9" fill-rule="nonzero">
            <g>
                <g>
                    <g>
                        <path d="M24.626 2.375c-.97.417-1.938.677-2.907.782 1.094-.657 1.834-1.584 2.22-2.782-1.001.594-2.069 1-3.204 1.219C19.735.531 18.505 0 17.047 0c-1.395 0-2.585.492-3.57 1.477C12.492 2.46 12 3.65 12 5.047c0 .375.042.76.125 1.156-2.062-.104-3.997-.622-5.805-1.555C4.513 3.716 2.98 2.474 1.72.922c-.459.78-.688 1.63-.688 2.547 0 .864.203 1.666.61 2.406.406.74.953 1.338 1.64 1.797-.812-.031-1.573-.245-2.28-.64v.062c0 1.218.382 2.289 1.147 3.21.766.923 1.732 1.503 2.899 1.743-.438.114-.88.172-1.328.172-.292 0-.61-.026-.953-.078.323 1.01.916 1.84 1.78 2.492.865.651 1.845.987 2.938 1.008-1.833 1.437-3.921 2.156-6.265 2.156-.448 0-.854-.02-1.219-.062C2.344 19.245 4.927 20 7.75 20c1.792 0 3.474-.284 5.047-.851 1.573-.568 2.917-1.329 4.031-2.282 1.115-.953 2.076-2.05 2.883-3.289.807-1.24 1.409-2.534 1.805-3.883.396-1.349.594-2.7.594-4.055 0-.291-.006-.51-.016-.656.99-.718 1.834-1.588 2.532-2.609z" transform="translate(-485.000000, -429.000000) translate(466.000000, 96.000000) translate(0.000000, 314.000000) translate(19.000000, 19.000000)"/>
                    </g>
                </g>
            </g>
        </g>
    </g>
</svg>
