<svg xmlns="http://www.w3.org/2000/svg" width="16" height="16" viewBox="0 0 16 16">
    <defs>
        <linearGradient id="0065y9ntza" x1="-5.835%" x2="107.632%" y1="0%" y2="118.344%">
            <stop offset="0%" stop-color="#FCAE3C"/>
            <stop offset="100%" stop-color="#C16CFF"/>
        </linearGradient>
    </defs>
    <g fill="none" fill-rule="evenodd">
        <g fill="url(#0065y9ntza)" transform="translate(-487.000000, -225.000000)">
            <g>
                <path d="M13.497 0c1.67.033 2.023 2.314.467 2.863v3.651h.535c.81 0 1.47.66 1.47 1.47V9.99c0 .81-.66 1.47-1.47 1.47h-1.072c-.296.65-.707 1.246-1.218 1.757.449.252.753.732.753 1.283V15.5c0 .258-.21.468-.468.468h-9.02c-.258 0-.467-.21-.467-.468v-1.002c0-.55.304-1.03.753-1.283-.51-.51-.922-1.107-1.218-1.757H1.47c-.81 0-1.47-.66-1.47-1.47V7.984c0-.81.66-1.47 1.47-1.47h1.07c1.91-4.287 7.994-4.727 10.489-.736V2.863c-1.556-.548-1.203-2.83.468-2.863zm-2.005 13.964H4.477c-.295 0-.535.24-.535.535v.534h8.085V14.5c0-.295-.24-.535-.535-.535zM7.984 3.942c-4.827.011-6.875 6.196-3.016 9.087H11c3.859-2.89 1.811-9.076-3.017-9.087zm2.454 2.071c.123 0 .24.048.328.134.77.754 1.194 1.763 1.194 2.84 0 1.076-.424 2.085-1.194 2.84-.088.085-.205.133-.328.133H5.53c-.122 0-.24-.048-.327-.134-.77-.754-1.194-1.763-1.194-2.84 0-1.076.424-2.085 1.194-2.84.088-.085.205-.133.327-.133zm-.198.936H5.73c-1.04 1.103-1.04 2.972 0 4.075h4.51c1.04-1.103 1.04-2.972 0-4.075zm-8.035.501H1.47c-.295 0-.534.24-.534.534V9.99c0 .294.24.534.534.534h.737c-.269-.984-.268-2.095-.002-3.073zm12.294 0h-.735c.266.978.267 2.09-.002 3.073h.737c.294 0 .534-.24.534-.534V7.984c0-.294-.24-.534-.534-.534zM13.497.936c-.295 0-.535.24-.535.534 0 .295.24.534.535.534.707-.026.707-1.041 0-1.068z" transform="translate(487.000000, 225.000000)"/>
            </g>
        </g>
    </g>
</svg>
