<svg width="24" height="18" xmlns="http://www.w3.org/2000/svg">
    <g fill="#FFF" fill-rule="nonzero">
        <path d="M23.607 8.536h-1.619c-.146 0-.391-.008-.391-.155V6.747c0-.146.006-.34-.14-.34H19.83c-.147 0-.363-.045-.363-.192V4.591c0-.147-.022-.312-.169-.312h-1.62c-.148 0-.34-.074-.34-.22V2.425c0-.147-.082-.265-.23-.264-.53.005-1.074.005-1.625.005a.272.272 0 0 0-.273.266v1.618c0 .148-.068.228-.215.228h-5.97c-.147 0-.202-.08-.202-.227v-1.62c0-.147-.15-.266-.298-.266-.545 0-1.058 0-1.583-.005-.148 0-.247.117-.247.264v1.648c0 .147-.19.206-.337.206H4.725c-.147 0-.158.179-.158.325v1.627c0 .147-.227.177-.374.177H2.564c-.147 0-.392.208-.392.355v1.629c0 .147.007.144-.14.144H.428c-.147 0-.385.24-.385.388v5.901c0 .147.238.364.385.364h1.603c.147 0 .141-.217.141-.364v-3.756c0-.147.244-.138.391-.138h1.645c.147 0 .359-.009.359.138v3.78c0 .147.073.266.22.266.546 0 1.097 0 1.623.004.147.002.286-.116.286-.263v-1.623c0-.147.033-.173.18-.173H17.16c.147 0 .266.073.266.22 0 .546 0 1.096-.005 1.628 0 .147.117.28.264.28h1.62c.147 0 .163-.194.163-.34v-3.775c0-.147.222-.142.37-.142h1.653c.147 0 .372-.005.372.142v3.752c0 .147.014.364.16.364h1.583c.147 0 .385-.217.385-.364V8.913c0-.147-.238-.377-.384-.377zM8.824 8.368c0 .147-.166.168-.313.168H6.885c-.147 0-.19-.02-.19-.167V6.746c0-.147.044-.338.19-.338h1.626c.147 0 .313.191.313.338v1.622zm8.515.005c0 .147-.044.163-.191.163h-1.623c-.147 0-.315-.016-.315-.164V6.75c0-.147.168-.341.315-.341h1.623c.147 0 .191.194.191.34v1.625z"/>
        <path d="M10.667 15.134H9.469l-2.588-.01a.264.264 0 0 0-.266.265c.004.532.003 1.099.003 1.631 0 .147.118.298.265.298h3.764c.147 0 .306-.183.306-.33V15.4c0-.147-.14-.267-.286-.266zM17.254 15.128c-.042.003-.064.032-.106.032-1.267.001-2.514.029-3.78.029h-.121c-.067 0-.165.063-.165.21v1.592c0 .147.164.326.31.326h3.761c.147 0 .186-.18.186-.326V15.38c0-.147-.016-.258-.085-.252zM4.748 2.15H6.36a.26.26 0 0 0 .263-.261C6.62 1.356 6.618.82 6.618.289a.266.266 0 0 0-.266-.267H4.748c-.146 0-.181.124-.181.27v1.601c0 .147.035.257.181.257zM17.645 2.165c.533-.005 1.046-.005 1.579-.005.147 0 .244-.12.244-.267V.29c0-.147-.036-.268-.183-.268h-1.6c-.146 0-.346.121-.346.268v1.612c0 .146.16.264.306.263z"/>
    </g>
</svg>
