<svg xmlns="http://www.w3.org/2000/svg" width="18" height="18" viewBox="0 0 18 18">
    <defs>
        <linearGradient id="yqu30xgx5a" x1="-5.835%" x2="107.632%" y1="0%" y2="118.344%">
            <stop offset="0%" stop-color="#8800EC"/>
            <stop offset="100%" stop-color="#FCAE3C"/>
        </linearGradient>
    </defs>
    <g fill="none" fill-rule="evenodd">
        <g fill="url(#yqu30xgx5a)" transform="translate(-990.000000, -348.000000)">
            <g>
                <g>
                    <g>
                        <path d="M13.957 0c.032.012.063.03.096.034 1.891.228 3.442 1.64 3.843 3.499.036.17.07.34.104.51v9.914c-.012.032-.03.063-.034.096-.214 1.786-1.493 3.285-3.228 3.772-.256.072-.52.117-.781.175H4.043c-.032-.012-.063-.03-.096-.034C2.059 17.74.501 16.321.104 14.467c-.036-.17-.07-.34-.104-.51V4.043l.07-.339C.446 1.914 1.508.74 3.245.18c.258-.083.532-.121.798-.18zM8.999 1.507c-1.47 0-2.94-.002-4.41.002-.222 0-.448.01-.664.054-1.445.299-2.416 1.492-2.417 2.97-.003 2.794-.003 5.588 0 8.382 0 .363-.005.729.043 1.087.18 1.36 1.48 2.486 2.854 2.488 3.017.003 6.034.004 9.05 0 .21 0 .424-.013.628-.056 1.448-.307 2.408-1.493 2.41-2.976.002-2.77.002-5.542-.001-8.313 0-.374.005-.751-.04-1.121-.167-1.362-1.462-2.508-2.83-2.513-1.541-.006-3.082-.001-4.623-.001zM9.053 4.5c.335.015.64.288.686.621.013.098.015.199.015.298.001.885 0 1.769.002 2.654 0 .046.004.092.007.161.07.004.138.01.205.01h2.724c.394.002.67.195.776.537.096.31-.01.667-.295.829-.154.087-.351.133-.53.136-.884.013-1.769.006-2.653.006h-.237v.218c0 .902.002 1.804 0 2.706-.002.413-.19.685-.539.792-.439.135-.902-.163-.956-.618-.013-.11-.01-.222-.01-.333-.002-.855-.003-1.71-.003-2.566v-.199h-.451c-.826 0-1.652.005-2.478.001-.585-.002-.96-.496-.774-1.01.11-.308.384-.493.753-.496.55-.004 1.101-.002 1.652-.002h1.125c.05 0 .102-.006.175-.011V8.02c0-.902-.003-1.804.001-2.706.002-.508.33-.834.805-.814z" transform="translate(749.000000, 298.000000) translate(241.000000, 50.000000)"/>
                    </g>
                </g>
            </g>
        </g>
    </g>
</svg>
