<svg xmlns="http://www.w3.org/2000/svg" width="24" height="24" viewBox="0 0 24 24">
    <defs>
        <linearGradient id="gcl0thwkua" x1="0%" x2="99.784%" y1="40.56%" y2="49.98%">
            <stop offset="0%" stop-color="#AA37FF"/>
            <stop offset="100%" stop-color="#FCAE3C"/>
        </linearGradient>
    </defs>
    <g fill="none" fill-rule="evenodd">
        <g fill="url(#gcl0thwkua)" fill-rule="nonzero" transform="translate(-1587.000000, -309.000000)">
            <g>
                <path d="M.46 14.677c.065-.721.89-1.097 1.478-.678l4.053 2.895c.421.301.52.887.218 1.308-.3.421-.886.519-1.308.218l-1.336-.955c1.802 2.844 4.949 4.66 8.435 4.66 3.825 0 7.215-2.18 8.904-5.487.235-.46.8-.644 1.261-.408.461.235.644.8.409 1.261C20.579 21.397 16.56 24 12 24c-4.239 0-7.897-2.212-10.005-5.522l-.124 1.363c-.047.515-.502.895-1.019.848-.515-.047-.895-.503-.848-1.019zM12 0c4.239 0 7.897 2.212 10.005 5.522l.124-1.363c.047-.515.503-.895 1.019-.848.515.047.895.503.848 1.019l-.455 4.993c-.065.714-.885 1.101-1.479.678L18.01 7.106c-.422-.301-.52-.887-.218-1.308.3-.421.886-.519 1.308-.218l1.336.955C18.633 3.69 15.486 1.875 12 1.875c-3.825 0-7.215 2.18-8.904 5.487-.235.46-.8.644-1.261.408-.461-.235-.644-.8-.409-1.261C3.421 2.603 7.44 0 12 0z" transform="translate(1587.000000, 309.000000)"/>
            </g>
        </g>
    </g>
</svg>
