<svg xmlns="http://www.w3.org/2000/svg" width="31" height="31" viewBox="0 0 31 31">
    <g fill="none" fill-rule="evenodd">
        <g fill="#FFF" fill-rule="nonzero">
            <g>
                <g>
                    <g>
                        <path d="M21.667 13c4.778 0 8.666 3.888 8.666 8.667 0 4.778-3.888 8.666-8.666 8.666-4.779 0-8.667-3.888-8.667-8.666C13 16.888 16.888 13 21.667 13zm0 2C17.99 15 15 17.99 15 21.667c0 3.676 2.99 6.666 6.667 6.666 3.676 0 6.666-2.99 6.666-6.666S25.343 15 21.667 15zm-11-15c3.676 0 6.666 2.99 6.666 6.667v2.666h1c.86 0 1.674.367 2.234 1.01.362.416.321 1.046-.095 1.41-.413.364-1.045.323-1.41-.094-.182-.207-.446-.326-.729-.326H3c-.55 0-1 .45-1 1v11.334c0 .55.45 1 1 1h8c.552 0 1 .448 1 1s-.448 1-1 1H3c-1.653 0-3-1.347-3-3V12.333c0-1.653 1.347-3 3-3h.999L4 6.667C4 2.99 6.99 0 10.667 0zm11 17c.552 0 1 .448 1 1v3.819l1.914 1.366c.451.322.554.946.234 1.395-.196.275-.504.42-.816.42-.2 0-.404-.06-.58-.187l-2.334-1.666c-.262-.187-.418-.491-.418-.814V18c0-.552.448-1 1-1zm-11-15C8.093 2 6 4.093 6 6.667l-.001 2.666h9.334V6.667C15.333 4.093 13.24 2 10.667 2z" transform="translate(-1085.000000, -444.000000) translate(1039.000000, 263.000000) translate(20.000000, 158.000000) translate(26.000000, 23.000000)"/>
                    </g>
                </g>
            </g>
        </g>
    </g>
</svg>
