<svg width="31" height="36" xmlns="http://www.w3.org/2000/svg">
    <g fill-rule="nonzero" fill="none">
        <g fill="#3085B1">
            <path d="M15.082 9.908c6.07 0 11.01 4.94 11.01 11.01h-11.01V9.908zM12.212 3.283h5.74v3.524h-5.74zM22.777 11.442a11.998 11.998 0 0 0-4.37-2.3l.289-1.013a13.044 13.044 0 0 1 4.752 2.5l-.671.813zm-5.023-2.466c-.326-.074-.66-.134-.993-.18l.145-1.045c.362.05.725.117 1.08.197l-.232 1.028zm-1.663-.255a12.352 12.352 0 0 0-1.01-.041V7.626c.366 0 .735.015 1.097.045l-.087 1.05z"/>
        </g>
        <path d="M19.564 0H10.6l-.573.572v3.193l.573.572h8.964l.572-.572V.572L19.564 0zm-.482 3.283h-1.13v-1.35h-1.055v1.35h-1.288v-1.35h-1.054v1.35h-1.3v-1.35H12.2v1.35h-1.12V1.054h8.001v2.23zM25.746 10.254a14.984 14.984 0 0 0-10.664-4.418 14.983 14.983 0 0 0-10.665 4.418A14.984 14.984 0 0 0 0 20.918c0 4.029 1.569 7.816 4.417 10.665A14.983 14.983 0 0 0 15.082 36c4.028 0 7.815-1.569 10.664-4.417a14.983 14.983 0 0 0 4.418-10.665c0-4.028-1.57-7.815-4.418-10.664zM15.082 34.946c-7.735 0-14.028-6.293-14.028-14.028S7.347 6.891 15.082 6.891c7.734 0 14.027 6.292 14.027 14.027 0 7.735-6.292 14.028-14.027 14.028z" fill="#070A10"/>
        <path d="M15.082 9.381c-6.362 0-11.538 5.176-11.538 11.537 0 6.362 5.176 11.538 11.538 11.538 6.361 0 11.537-5.176 11.537-11.538 0-6.361-5.176-11.537-11.537-11.537zm7.027 3.765-1.777 1.776.745.746 1.777-1.777a10.441 10.441 0 0 1 2.71 7.027c0 2.701-1.026 5.167-2.71 7.027l-1.777-1.776-.745.745 1.777 1.777a10.44 10.44 0 0 1-6.5 2.697V28.87h-1.054v2.518a10.441 10.441 0 0 1-6.5-2.697l1.776-1.777-.745-.745-1.777 1.776a10.443 10.443 0 0 1-2.697-6.5h2.517v-1.054H4.612a10.443 10.443 0 0 1 2.697-6.5l1.777 1.777.745-.746-1.776-1.776a10.44 10.44 0 0 1 7.027-2.71 10.44 10.44 0 0 1 7.027 2.71z" fill="#070A10"/>
        <path fill="#070A10" d="M24.686 20.391H15.61v-9.078h-1.054v10.132h10.131z"/>
    </g>
</svg>
