<svg xmlns="http://www.w3.org/2000/svg" width="16" height="21" viewBox="0 0 16 21">
    <g fill="none" fill-rule="evenodd">
        <g fill="#FFF" fill-rule="nonzero">
            <g>
                <g>
                    <path d="M19.785 5.216L14.786.217c-.278-.278-.73-.278-1.01 0-.133.134-.208.316-.209.505v2.143H8.57c-.395 0-.714.32-.714.714 0 .394.32.714.714.714h5.713c.394 0 .714-.32.714-.714V2.446l3.275 3.275-3.275 3.275V7.863c0-.394-.32-.714-.714-.714H6.427V5.007c0-.395-.32-.714-.715-.714-.189 0-.37.075-.504.209L.209 9.5c-.279.278-.279.73 0 1.01l4.999 4.998c.134.134.315.21.505.21.093 0 .186-.02.273-.055.267-.11.44-.371.44-.66v-2.142h5c.394 0 .713-.32.713-.714 0-.395-.32-.714-.714-.714H5.713c-.395 0-.715.32-.715.714v1.132l-3.274-3.275 3.274-3.274v1.132c0 .394.32.714.715.714h7.854v2.142c0 .395.32.714.715.714.189 0 .37-.075.504-.209l5-4.998c.278-.28.278-.731 0-1.01z" transform="translate(-713.000000, -362.000000) translate(660.000000, 164.000000) translate(61.133891, 208.866109) rotate(-90.000000) translate(-61.133891, -208.866109) translate(51.133891, 200.866109)"/>
                </g>
            </g>
        </g>
    </g>
</svg>
